<svg xmlns="http://www.w3.org/2000/svg" version="1.1" xmlns:xlink="http://www.w3.org/1999/xlink" xmlns:svgjs="http://svgjs.dev/svgjs" width="1440" height="720" preserveAspectRatio="none" viewBox="0 0 1440 720"><g mask="url(&quot;#SvgjsMask1932&quot;)" fill="none"><rect width="1440" height="720" x="0" y="0" fill="url(&quot;#SvgjsLinearGradient1933&quot;)"></rect><g mask="url(&quot;#SvgjsMask1934&quot;)"><path d="M630 154L742 42L742 14" stroke-width="4.67" stroke="rgba(0, 255, 255, 0.29)"></path><path d="M623 154 a7 7 0 1 0 14 0 a7 7 0 1 0 -14 0zM735 14 a7 7 0 1 0 14 0 a7 7 0 1 0 -14 0z" fill="rgba(0, 255, 255, 0.29)"></path><path d="M686 238L910 14L1078 14L1218 154" stroke-width="4.67" stroke="rgba(0, 255, 255, 0.29)"></path><path d="M679 238 a7 7 0 1 0 14 0 a7 7 0 1 0 -14 0zM1211 154 a7 7 0 1 0 14 0 a7 7 0 1 0 -14 0z" fill="rgba(0, 255, 255, 0.29)"></path><path d="M1022 546L1022 518L910 406L574 406L546 434L518 434" stroke-width="4.67" stroke="rgba(0, 255, 255, 0.29)"></path><path d="M1015 546 a7 7 0 1 0 14 0 a7 7 0 1 0 -14 0zM511 434 a7 7 0 1 0 14 0 a7 7 0 1 0 -14 0z" fill="rgba(0, 255, 255, 0.29)"></path><path d="M1414 574L1330 574L882 126" stroke-width="4.67" stroke="rgba(0, 255, 255, 0.29)"></path><path d="M1407 574 a7 7 0 1 0 14 0 a7 7 0 1 0 -14 0zM875 126 a7 7 0 1 0 14 0 a7 7 0 1 0 -14 0z" fill="rgba(0, 255, 255, 0.29)"></path><path d="M434 154L462 154L658 350L966 350" stroke-width="4.67" stroke="rgba(0, 255, 255, 0.29)"></path><path d="M427 154 a7 7 0 1 0 14 0 a7 7 0 1 0 -14 0zM959 350 a7 7 0 1 0 14 0 a7 7 0 1 0 -14 0z" fill="rgba(0, 255, 255, 0.29)"></path><path d="M70 714L14 714" stroke-width="4.67" stroke="rgba(0, 255, 255, 0.29)"></path><path d="M63 714 a7 7 0 1 0 14 0 a7 7 0 1 0 -14 0zM7 714 a7 7 0 1 0 14 0 a7 7 0 1 0 -14 0z" fill="rgba(0, 255, 255, 0.29)"></path><path d="M126 602L70 546L14 546" stroke-width="4.67" stroke="rgba(0, 255, 255, 0.29)"></path><path d="M119 602 a7 7 0 1 0 14 0 a7 7 0 1 0 -14 0zM7 546 a7 7 0 1 0 14 0 a7 7 0 1 0 -14 0z" fill="rgba(0, 255, 255, 0.29)"></path><path d="M910 238L938 266L938 322" stroke-width="4.67" stroke="rgba(0, 255, 255, 0.29)"></path><path d="M903 238 a7 7 0 1 0 14 0 a7 7 0 1 0 -14 0zM931 322 a7 7 0 1 0 14 0 a7 7 0 1 0 -14 0z" fill="rgba(0, 255, 255, 0.29)"></path><path d="M714 42L686 14L378 14L322 70L294 70L238 14L210 14L182 42" stroke-width="4.67" stroke="rgba(0, 255, 255, 0.29)"></path><path d="M707 42 a7 7 0 1 0 14 0 a7 7 0 1 0 -14 0zM175 42 a7 7 0 1 0 14 0 a7 7 0 1 0 -14 0z" fill="rgba(0, 255, 255, 0.29)"></path><path d="M1246 546L1050 546L966 630L938 630L742 434L714 434" stroke-width="4.67" stroke="rgba(0, 255, 255, 0.29)"></path><path d="M1239 546 a7 7 0 1 0 14 0 a7 7 0 1 0 -14 0zM707 434 a7 7 0 1 0 14 0 a7 7 0 1 0 -14 0z" fill="rgba(0, 255, 255, 0.29)"></path><path d="M1190 294L1134 350" stroke-width="4.67" stroke="rgba(0, 255, 255, 0.29)"></path><path d="M1183 294 a7 7 0 1 0 14 0 a7 7 0 1 0 -14 0zM1127 350 a7 7 0 1 0 14 0 a7 7 0 1 0 -14 0z" fill="rgba(0, 255, 255, 0.29)"></path><path d="M854 294L630 294L490 154L490 98L546 42L602 42" stroke-width="4.67" stroke="rgba(0, 255, 255, 0.29)"></path><path d="M847 294 a7 7 0 1 0 14 0 a7 7 0 1 0 -14 0zM595 42 a7 7 0 1 0 14 0 a7 7 0 1 0 -14 0z" fill="rgba(0, 255, 255, 0.29)"></path><path d="M1442 686L1302 686L1246 630L1022 630L994 658L994 714" stroke-width="4.67" stroke="rgba(0, 255, 255, 0.29)"></path><path d="M1435 686 a7 7 0 1 0 14 0 a7 7 0 1 0 -14 0zM987 714 a7 7 0 1 0 14 0 a7 7 0 1 0 -14 0z" fill="rgba(0, 255, 255, 0.29)"></path><path d="M1078 574L1050 602L1022 602" stroke-width="4.67" stroke="rgba(0, 255, 255, 0.29)"></path><path d="M1071 574 a7 7 0 1 0 14 0 a7 7 0 1 0 -14 0zM1015 602 a7 7 0 1 0 14 0 a7 7 0 1 0 -14 0z" fill="rgba(0, 255, 255, 0.29)"></path><path d="M1330 238L1442 126L1442 14" stroke-width="4.67" stroke="rgba(0, 255, 255, 0.29)"></path><path d="M1323 238 a7 7 0 1 0 14 0 a7 7 0 1 0 -14 0zM1435 14 a7 7 0 1 0 14 0 a7 7 0 1 0 -14 0z" fill="rgba(0, 255, 255, 0.29)"></path><path d="M1358 70L1358 98L1386 126L1414 126" stroke-width="4.67" stroke="rgba(0, 255, 255, 0.29)"></path><path d="M1351 70 a7 7 0 1 0 14 0 a7 7 0 1 0 -14 0zM1407 126 a7 7 0 1 0 14 0 a7 7 0 1 0 -14 0z" fill="rgba(0, 255, 255, 0.29)"></path><path d="M294 378L294 350L154 210L154 14" stroke-width="4.67" stroke="rgba(0, 255, 255, 0.29)"></path><path d="M287 378 a7 7 0 1 0 14 0 a7 7 0 1 0 -14 0zM147 14 a7 7 0 1 0 14 0 a7 7 0 1 0 -14 0z" fill="rgba(0, 255, 255, 0.29)"></path><path d="M1414 518L1302 518L1162 378L1162 350L1358 154L1386 154" stroke-width="4.67" stroke="rgba(0, 255, 255, 0.29)"></path><path d="M1407 518 a7 7 0 1 0 14 0 a7 7 0 1 0 -14 0zM1379 154 a7 7 0 1 0 14 0 a7 7 0 1 0 -14 0z" fill="rgba(0, 255, 255, 0.29)"></path><path d="M1218 490L1022 490L938 406L938 378" stroke-width="4.67" stroke="rgba(0, 255, 255, 0.29)"></path><path d="M1211 490 a7 7 0 1 0 14 0 a7 7 0 1 0 -14 0zM931 378 a7 7 0 1 0 14 0 a7 7 0 1 0 -14 0z" fill="rgba(0, 255, 255, 0.29)"></path><path d="M210 238L210 42" stroke-width="4.67" stroke="rgba(0, 255, 255, 0.29)"></path><path d="M203 238 a7 7 0 1 0 14 0 a7 7 0 1 0 -14 0zM203 42 a7 7 0 1 0 14 0 a7 7 0 1 0 -14 0z" fill="rgba(0, 255, 255, 0.29)"></path><path d="M826 714L602 490L490 490L294 294" stroke-width="4.67" stroke="rgba(0, 255, 255, 0.29)"></path><path d="M819 714 a7 7 0 1 0 14 0 a7 7 0 1 0 -14 0zM287 294 a7 7 0 1 0 14 0 a7 7 0 1 0 -14 0z" fill="rgba(0, 255, 255, 0.29)"></path><path d="M1386 14L1386 98" stroke-width="4.67" stroke="rgba(0, 255, 255, 0.29)"></path><path d="M1379 14 a7 7 0 1 0 14 0 a7 7 0 1 0 -14 0zM1379 98 a7 7 0 1 0 14 0 a7 7 0 1 0 -14 0z" fill="rgba(0, 255, 255, 0.29)"></path><path d="M518 266L518 238L462 182L406 182L378 154L350 154L238 266" stroke-width="4.67" stroke="rgba(0, 255, 255, 0.29)"></path><path d="M511 266 a7 7 0 1 0 14 0 a7 7 0 1 0 -14 0zM231 266 a7 7 0 1 0 14 0 a7 7 0 1 0 -14 0z" fill="rgba(0, 255, 255, 0.29)"></path><path d="M1162 238L1162 294L1134 322L1106 322L882 98L882 70L910 42L1050 42" stroke-width="4.67" stroke="rgba(0, 255, 255, 0.29)"></path><path d="M1155 238 a7 7 0 1 0 14 0 a7 7 0 1 0 -14 0zM1043 42 a7 7 0 1 0 14 0 a7 7 0 1 0 -14 0z" fill="rgba(0, 255, 255, 0.29)"></path><path d="M770 630L574 434" stroke-width="4.67" stroke="rgba(0, 255, 255, 0.29)"></path><path d="M763 630 a7 7 0 1 0 14 0 a7 7 0 1 0 -14 0zM567 434 a7 7 0 1 0 14 0 a7 7 0 1 0 -14 0z" fill="rgba(0, 255, 255, 0.29)"></path><path d="M350 574L350 630L434 714L462 714L630 546" stroke-width="4.67" stroke="rgba(0, 255, 255, 0.29)"></path><path d="M343 574 a7 7 0 1 0 14 0 a7 7 0 1 0 -14 0zM623 546 a7 7 0 1 0 14 0 a7 7 0 1 0 -14 0z" fill="rgba(0, 255, 255, 0.29)"></path><path d="M126 294L126 14" stroke-width="4.67" stroke="rgba(0, 255, 255, 0.29)"></path><path d="M119 294 a7 7 0 1 0 14 0 a7 7 0 1 0 -14 0zM119 14 a7 7 0 1 0 14 0 a7 7 0 1 0 -14 0z" fill="rgba(0, 255, 255, 0.29)"></path><path d="M518 714L518 686L630 574L658 574L798 714" stroke-width="4.67" stroke="rgba(0, 255, 255, 0.29)"></path><path d="M511 714 a7 7 0 1 0 14 0 a7 7 0 1 0 -14 0zM791 714 a7 7 0 1 0 14 0 a7 7 0 1 0 -14 0z" fill="rgba(0, 255, 255, 0.29)"></path><path d="M406 714L238 546L238 518L350 406L378 406L546 574L546 602" stroke-width="4.67" stroke="rgba(0, 255, 255, 0.29)"></path><path d="M399 714 a7 7 0 1 0 14 0 a7 7 0 1 0 -14 0zM539 602 a7 7 0 1 0 14 0 a7 7 0 1 0 -14 0z" fill="rgba(0, 255, 255, 0.29)"></path><path d="M1386 266L1246 406L1246 434L1302 490L1330 490L1442 378L1442 210" stroke-width="4.67" stroke="rgba(0, 255, 255, 0.29)"></path><path d="M1379 266 a7 7 0 1 0 14 0 a7 7 0 1 0 -14 0zM1435 210 a7 7 0 1 0 14 0 a7 7 0 1 0 -14 0z" fill="rgba(0, 255, 255, 0.29)"></path><path d="M1246 322L1218 350L1190 350" stroke-width="4.67" stroke="rgba(0, 255, 255, 0.29)"></path><path d="M1239 322 a7 7 0 1 0 14 0 a7 7 0 1 0 -14 0zM1183 350 a7 7 0 1 0 14 0 a7 7 0 1 0 -14 0z" fill="rgba(0, 255, 255, 0.29)"></path><path d="M1106 98L1106 238L1078 266" stroke-width="4.67" stroke="rgba(0, 255, 255, 0.29)"></path><path d="M1099 98 a7 7 0 1 0 14 0 a7 7 0 1 0 -14 0zM1071 266 a7 7 0 1 0 14 0 a7 7 0 1 0 -14 0z" fill="rgba(0, 255, 255, 0.29)"></path><path d="M1106 686L1274 686L1302 714L1442 714" stroke-width="4.67" stroke="rgba(0, 255, 255, 0.29)"></path><path d="M1099 686 a7 7 0 1 0 14 0 a7 7 0 1 0 -14 0zM1435 714 a7 7 0 1 0 14 0 a7 7 0 1 0 -14 0z" fill="rgba(0, 255, 255, 0.29)"></path><path d="M210 406L266 350" stroke-width="4.67" stroke="rgba(0, 255, 255, 0.29)"></path><path d="M203 406 a7 7 0 1 0 14 0 a7 7 0 1 0 -14 0zM259 350 a7 7 0 1 0 14 0 a7 7 0 1 0 -14 0z" fill="rgba(0, 255, 255, 0.29)"></path><path d="M854 322L658 322" stroke-width="4.67" stroke="rgba(0, 255, 255, 0.29)"></path><path d="M847 322 a7 7 0 1 0 14 0 a7 7 0 1 0 -14 0zM651 322 a7 7 0 1 0 14 0 a7 7 0 1 0 -14 0z" fill="rgba(0, 255, 255, 0.29)"></path><path d="M210 630L14 434L14 98" stroke-width="4.67" stroke="rgba(0, 255, 255, 0.29)"></path><path d="M203 630 a7 7 0 1 0 14 0 a7 7 0 1 0 -14 0zM7 98 a7 7 0 1 0 14 0 a7 7 0 1 0 -14 0z" fill="rgba(0, 255, 255, 0.29)"></path><path d="M210 658L154 714L98 714L70 686L70 630L98 602" stroke-width="4.67" stroke="rgba(0, 255, 255, 0.29)"></path><path d="M203 658 a7 7 0 1 0 14 0 a7 7 0 1 0 -14 0zM91 602 a7 7 0 1 0 14 0 a7 7 0 1 0 -14 0z" fill="rgba(0, 255, 255, 0.29)"></path><path d="M490 266L434 210L322 210L266 266L266 294" stroke-width="4.67" stroke="rgba(0, 255, 255, 0.29)"></path><path d="M483 266 a7 7 0 1 0 14 0 a7 7 0 1 0 -14 0zM259 294 a7 7 0 1 0 14 0 a7 7 0 1 0 -14 0z" fill="rgba(0, 255, 255, 0.29)"></path><path d="M1330 658L1442 658" stroke-width="4.67" stroke="rgba(0, 255, 255, 0.29)"></path><path d="M1323 658 a7 7 0 1 0 14 0 a7 7 0 1 0 -14 0zM1435 658 a7 7 0 1 0 14 0 a7 7 0 1 0 -14 0z" fill="rgba(0, 255, 255, 0.29)"></path><path d="M854 238L882 238L910 210L910 182L882 154" stroke-width="4.67" stroke="rgba(0, 255, 255, 0.29)"></path><path d="M847 238 a7 7 0 1 0 14 0 a7 7 0 1 0 -14 0zM875 154 a7 7 0 1 0 14 0 a7 7 0 1 0 -14 0z" fill="rgba(0, 255, 255, 0.29)"></path><path d="M574 210L686 210L882 14" stroke-width="4.67" stroke="rgba(0, 255, 255, 0.29)"></path><path d="M567 210 a7 7 0 1 0 14 0 a7 7 0 1 0 -14 0zM875 14 a7 7 0 1 0 14 0 a7 7 0 1 0 -14 0z" fill="rgba(0, 255, 255, 0.29)"></path><path d="M70 42L70 462L126 518L182 518" stroke-width="4.67" stroke="rgba(0, 255, 255, 0.29)"></path><path d="M63 42 a7 7 0 1 0 14 0 a7 7 0 1 0 -14 0zM175 518 a7 7 0 1 0 14 0 a7 7 0 1 0 -14 0z" fill="rgba(0, 255, 255, 0.29)"></path><path d="M826 602L826 686L854 714L966 714" stroke-width="4.67" stroke="rgba(0, 255, 255, 0.29)"></path><path d="M819 602 a7 7 0 1 0 14 0 a7 7 0 1 0 -14 0zM959 714 a7 7 0 1 0 14 0 a7 7 0 1 0 -14 0z" fill="rgba(0, 255, 255, 0.29)"></path><path d="M910 462L882 434L826 434L798 462" stroke-width="4.67" stroke="rgba(0, 255, 255, 0.29)"></path><path d="M903 462 a7 7 0 1 0 14 0 a7 7 0 1 0 -14 0zM791 462 a7 7 0 1 0 14 0 a7 7 0 1 0 -14 0z" fill="rgba(0, 255, 255, 0.29)"></path><path d="M714 98L714 154L686 182L546 182L518 154L518 98L546 70L686 70" stroke-width="4.67" stroke="rgba(0, 255, 255, 0.29)"></path><path d="M707 98 a7 7 0 1 0 14 0 a7 7 0 1 0 -14 0zM679 70 a7 7 0 1 0 14 0 a7 7 0 1 0 -14 0z" fill="rgba(0, 255, 255, 0.29)"></path><path d="M378 350L322 294L322 238" stroke-width="4.67" stroke="rgba(0, 255, 255, 0.29)"></path><path d="M371 350 a7 7 0 1 0 14 0 a7 7 0 1 0 -14 0zM315 238 a7 7 0 1 0 14 0 a7 7 0 1 0 -14 0z" fill="rgba(0, 255, 255, 0.29)"></path><path d="M546 266L658 378L910 378" stroke-width="4.67" stroke="rgba(0, 255, 255, 0.29)"></path><path d="M539 266 a7 7 0 1 0 14 0 a7 7 0 1 0 -14 0zM903 378 a7 7 0 1 0 14 0 a7 7 0 1 0 -14 0z" fill="rgba(0, 255, 255, 0.29)"></path><path d="M826 210L826 266" stroke-width="4.67" stroke="rgba(0, 255, 255, 0.29)"></path><path d="M819 210 a7 7 0 1 0 14 0 a7 7 0 1 0 -14 0zM819 266 a7 7 0 1 0 14 0 a7 7 0 1 0 -14 0z" fill="rgba(0, 255, 255, 0.29)"></path><path d="M1302 14L1302 182L1218 266L1190 266" stroke-width="4.67" stroke="rgba(0, 255, 255, 0.29)"></path><path d="M1295 14 a7 7 0 1 0 14 0 a7 7 0 1 0 -14 0zM1183 266 a7 7 0 1 0 14 0 a7 7 0 1 0 -14 0z" fill="rgba(0, 255, 255, 0.29)"></path><path d="M630 602L546 686L546 714" stroke-width="4.67" stroke="rgba(0, 255, 255, 0.29)"></path><path d="M623 602 a7 7 0 1 0 14 0 a7 7 0 1 0 -14 0zM539 714 a7 7 0 1 0 14 0 a7 7 0 1 0 -14 0z" fill="rgba(0, 255, 255, 0.29)"></path><path d="M294 686L322 714L378 714" stroke-width="4.67" stroke="rgba(0, 255, 255, 0.29)"></path><path d="M287 686 a7 7 0 1 0 14 0 a7 7 0 1 0 -14 0zM371 714 a7 7 0 1 0 14 0 a7 7 0 1 0 -14 0z" fill="rgba(0, 255, 255, 0.29)"></path><path d="M266 686L266 602L210 546L210 434L266 378" stroke-width="4.67" stroke="rgba(0, 255, 255, 0.29)"></path><path d="M259 686 a7 7 0 1 0 14 0 a7 7 0 1 0 -14 0zM259 378 a7 7 0 1 0 14 0 a7 7 0 1 0 -14 0z" fill="rgba(0, 255, 255, 0.29)"></path><path d="M266 518L350 434L378 434L518 574L518 630L462 686L434 686L378 630L378 546" stroke-width="4.67" stroke="rgba(0, 255, 255, 0.29)"></path><path d="M259 518 a7 7 0 1 0 14 0 a7 7 0 1 0 -14 0zM371 546 a7 7 0 1 0 14 0 a7 7 0 1 0 -14 0z" fill="rgba(0, 255, 255, 0.29)"></path><path d="M350 98L350 126L294 182L238 182" stroke-width="4.67" stroke="rgba(0, 255, 255, 0.29)"></path><path d="M343 98 a7 7 0 1 0 14 0 a7 7 0 1 0 -14 0zM231 182 a7 7 0 1 0 14 0 a7 7 0 1 0 -14 0z" fill="rgba(0, 255, 255, 0.29)"></path><path d="M518 350L490 322L378 322L350 294L350 266L378 238L434 238L518 322L546 322L602 378L630 378" stroke-width="4.67" stroke="rgba(0, 255, 255, 0.29)"></path><path d="M511 350 a7 7 0 1 0 14 0 a7 7 0 1 0 -14 0zM623 378 a7 7 0 1 0 14 0 a7 7 0 1 0 -14 0z" fill="rgba(0, 255, 255, 0.29)"></path><path d="M1386 630L1274 630L1218 574L1106 574L1078 602" stroke-width="4.67" stroke="rgba(0, 255, 255, 0.29)"></path><path d="M1379 630 a7 7 0 1 0 14 0 a7 7 0 1 0 -14 0zM1071 602 a7 7 0 1 0 14 0 a7 7 0 1 0 -14 0z" fill="rgba(0, 255, 255, 0.29)"></path><path d="M406 42L462 98L462 126" stroke-width="4.67" stroke="rgba(0, 255, 255, 0.29)"></path><path d="M399 42 a7 7 0 1 0 14 0 a7 7 0 1 0 -14 0zM455 126 a7 7 0 1 0 14 0 a7 7 0 1 0 -14 0z" fill="rgba(0, 255, 255, 0.29)"></path><path d="M98 14L98 322L182 406L182 490" stroke-width="4.67" stroke="rgba(0, 255, 255, 0.29)"></path><path d="M91 14 a7 7 0 1 0 14 0 a7 7 0 1 0 -14 0zM175 490 a7 7 0 1 0 14 0 a7 7 0 1 0 -14 0z" fill="rgba(0, 255, 255, 0.29)"></path><path d="M42 630L14 602L14 574" stroke-width="4.67" stroke="rgba(0, 255, 255, 0.29)"></path><path d="M35 630 a7 7 0 1 0 14 0 a7 7 0 1 0 -14 0zM7 574 a7 7 0 1 0 14 0 a7 7 0 1 0 -14 0z" fill="rgba(0, 255, 255, 0.29)"></path><path d="M434 98L406 126L406 154" stroke-width="4.67" stroke="rgba(0, 255, 255, 0.29)"></path><path d="M427 98 a7 7 0 1 0 14 0 a7 7 0 1 0 -14 0zM399 154 a7 7 0 1 0 14 0 a7 7 0 1 0 -14 0z" fill="rgba(0, 255, 255, 0.29)"></path><path d="M322 378L238 462L238 490" stroke-width="4.67" stroke="rgba(0, 255, 255, 0.29)"></path><path d="M315 378 a7 7 0 1 0 14 0 a7 7 0 1 0 -14 0zM231 490 a7 7 0 1 0 14 0 a7 7 0 1 0 -14 0z" fill="rgba(0, 255, 255, 0.29)"></path><path d="M1274 714L1022 714" stroke-width="4.67" stroke="rgba(0, 255, 255, 0.29)"></path><path d="M1267 714 a7 7 0 1 0 14 0 a7 7 0 1 0 -14 0zM1015 714 a7 7 0 1 0 14 0 a7 7 0 1 0 -14 0z" fill="rgba(0, 255, 255, 0.29)"></path><path d="M1106 434L1106 378L1078 350L1050 350L994 406L966 406" stroke-width="4.67" stroke="rgba(0, 255, 255, 0.29)"></path><path d="M1099 434 a7 7 0 1 0 14 0 a7 7 0 1 0 -14 0zM959 406 a7 7 0 1 0 14 0 a7 7 0 1 0 -14 0z" fill="rgba(0, 255, 255, 0.29)"></path><path d="M98 686L98 630" stroke-width="4.67" stroke="rgba(0, 255, 255, 0.29)"></path><path d="M91 686 a7 7 0 1 0 14 0 a7 7 0 1 0 -14 0zM91 630 a7 7 0 1 0 14 0 a7 7 0 1 0 -14 0z" fill="rgba(0, 255, 255, 0.29)"></path><path d="M798 546L686 434L602 434" stroke-width="4.67" stroke="rgba(0, 255, 255, 0.29)"></path><path d="M791 546 a7 7 0 1 0 14 0 a7 7 0 1 0 -14 0zM595 434 a7 7 0 1 0 14 0 a7 7 0 1 0 -14 0z" fill="rgba(0, 255, 255, 0.29)"></path><path d="M98 378L126 378L154 406L154 490" stroke-width="4.67" stroke="rgba(0, 255, 255, 0.29)"></path><path d="M91 378 a7 7 0 1 0 14 0 a7 7 0 1 0 -14 0zM147 490 a7 7 0 1 0 14 0 a7 7 0 1 0 -14 0z" fill="rgba(0, 255, 255, 0.29)"></path><path d="M1162 182L1190 210L1190 238" stroke-width="4.67" stroke="rgba(0, 255, 255, 0.29)"></path><path d="M1155 182 a7 7 0 1 0 14 0 a7 7 0 1 0 -14 0zM1183 238 a7 7 0 1 0 14 0 a7 7 0 1 0 -14 0z" fill="rgba(0, 255, 255, 0.29)"></path><path d="M1134 42L1162 14L1246 14L1274 42L1274 182L1218 238" stroke-width="4.67" stroke="rgba(0, 255, 255, 0.29)"></path><path d="M1127 42 a7 7 0 1 0 14 0 a7 7 0 1 0 -14 0zM1211 238 a7 7 0 1 0 14 0 a7 7 0 1 0 -14 0z" fill="rgba(0, 255, 255, 0.29)"></path><path d="M1246 658L1022 658" stroke-width="4.67" stroke="rgba(0, 255, 255, 0.29)"></path><path d="M1239 658 a7 7 0 1 0 14 0 a7 7 0 1 0 -14 0zM1015 658 a7 7 0 1 0 14 0 a7 7 0 1 0 -14 0z" fill="rgba(0, 255, 255, 0.29)"></path><path d="M1358 546L1442 546" stroke-width="4.67" stroke="rgba(0, 255, 255, 0.29)"></path><path d="M1351 546 a7 7 0 1 0 14 0 a7 7 0 1 0 -14 0zM1435 546 a7 7 0 1 0 14 0 a7 7 0 1 0 -14 0z" fill="rgba(0, 255, 255, 0.29)"></path><path d="M1134 406L1190 462" stroke-width="4.67" stroke="rgba(0, 255, 255, 0.29)"></path><path d="M1127 406 a7 7 0 1 0 14 0 a7 7 0 1 0 -14 0zM1183 462 a7 7 0 1 0 14 0 a7 7 0 1 0 -14 0z" fill="rgba(0, 255, 255, 0.29)"></path><path d="M1134 238L1134 98" stroke-width="4.67" stroke="rgba(0, 255, 255, 0.29)"></path><path d="M1127 238 a7 7 0 1 0 14 0 a7 7 0 1 0 -14 0zM1127 98 a7 7 0 1 0 14 0 a7 7 0 1 0 -14 0z" fill="rgba(0, 255, 255, 0.29)"></path><path d="M490 462L490 350" stroke-width="4.67" stroke="rgba(0, 255, 255, 0.29)"></path><path d="M483 462 a7 7 0 1 0 14 0 a7 7 0 1 0 -14 0zM483 350 a7 7 0 1 0 14 0 a7 7 0 1 0 -14 0z" fill="rgba(0, 255, 255, 0.29)"></path><path d="M994 154L1078 70L1106 70" stroke-width="4.67" stroke="rgba(0, 255, 255, 0.29)"></path><path d="M987 154 a7 7 0 1 0 14 0 a7 7 0 1 0 -14 0zM1099 70 a7 7 0 1 0 14 0 a7 7 0 1 0 -14 0z" fill="rgba(0, 255, 255, 0.29)"></path><path d="M406 350L462 350" stroke-width="4.67" stroke="rgba(0, 255, 255, 0.29)"></path><path d="M399 350 a7 7 0 1 0 14 0 a7 7 0 1 0 -14 0zM455 350 a7 7 0 1 0 14 0 a7 7 0 1 0 -14 0z" fill="rgba(0, 255, 255, 0.29)"></path><path d="M742 126L770 98L770 14" stroke-width="4.67" stroke="rgba(0, 255, 255, 0.29)"></path><path d="M735 126 a7 7 0 1 0 14 0 a7 7 0 1 0 -14 0zM763 14 a7 7 0 1 0 14 0 a7 7 0 1 0 -14 0z" fill="rgba(0, 255, 255, 0.29)"></path><path d="M1022 294L1022 322L966 378" stroke-width="4.67" stroke="rgba(0, 255, 255, 0.29)"></path><path d="M1015 294 a7 7 0 1 0 14 0 a7 7 0 1 0 -14 0zM959 378 a7 7 0 1 0 14 0 a7 7 0 1 0 -14 0z" fill="rgba(0, 255, 255, 0.29)"></path><path d="M154 350L182 378L210 378L238 350L238 322L154 238" stroke-width="4.67" stroke="rgba(0, 255, 255, 0.29)"></path><path d="M147 350 a7 7 0 1 0 14 0 a7 7 0 1 0 -14 0zM147 238 a7 7 0 1 0 14 0 a7 7 0 1 0 -14 0z" fill="rgba(0, 255, 255, 0.29)"></path><path d="M350 70L378 98L406 98" stroke-width="4.67" stroke="rgba(0, 255, 255, 0.29)"></path><path d="M343 70 a7 7 0 1 0 14 0 a7 7 0 1 0 -14 0zM399 98 a7 7 0 1 0 14 0 a7 7 0 1 0 -14 0z" fill="rgba(0, 255, 255, 0.29)"></path><path d="M1442 518L1386 462" stroke-width="4.67" stroke="rgba(0, 255, 255, 0.29)"></path><path d="M1435 518 a7 7 0 1 0 14 0 a7 7 0 1 0 -14 0zM1379 462 a7 7 0 1 0 14 0 a7 7 0 1 0 -14 0z" fill="rgba(0, 255, 255, 0.29)"></path><path d="M462 378L406 378" stroke-width="4.67" stroke="rgba(0, 255, 255, 0.29)"></path><path d="M455 378 a7 7 0 1 0 14 0 a7 7 0 1 0 -14 0zM399 378 a7 7 0 1 0 14 0 a7 7 0 1 0 -14 0z" fill="rgba(0, 255, 255, 0.29)"></path><path d="M742 714L658 630L630 630L574 686L574 714" stroke-width="4.67" stroke="rgba(0, 255, 255, 0.29)"></path><path d="M735 714 a7 7 0 1 0 14 0 a7 7 0 1 0 -14 0zM567 714 a7 7 0 1 0 14 0 a7 7 0 1 0 -14 0z" fill="rgba(0, 255, 255, 0.29)"></path><path d="M406 518L434 518L490 574L490 630L462 658L434 658L406 630L406 546" stroke-width="4.67" stroke="rgba(0, 255, 255, 0.29)"></path><path d="M399 518 a7 7 0 1 0 14 0 a7 7 0 1 0 -14 0zM399 546 a7 7 0 1 0 14 0 a7 7 0 1 0 -14 0z" fill="rgba(0, 255, 255, 0.29)"></path><path d="M182 630L154 630L126 658L126 686" stroke-width="4.67" stroke="rgba(0, 255, 255, 0.29)"></path><path d="M175 630 a7 7 0 1 0 14 0 a7 7 0 1 0 -14 0zM119 686 a7 7 0 1 0 14 0 a7 7 0 1 0 -14 0z" fill="rgba(0, 255, 255, 0.29)"></path><path d="M266 714L182 714" stroke-width="4.67" stroke="rgba(0, 255, 255, 0.29)"></path><path d="M259 714 a7 7 0 1 0 14 0 a7 7 0 1 0 -14 0zM175 714 a7 7 0 1 0 14 0 a7 7 0 1 0 -14 0z" fill="rgba(0, 255, 255, 0.29)"></path><path d="M14 630L14 686" stroke-width="4.67" stroke="rgba(0, 255, 255, 0.29)"></path><path d="M7 630 a7 7 0 1 0 14 0 a7 7 0 1 0 -14 0zM7 686 a7 7 0 1 0 14 0 a7 7 0 1 0 -14 0z" fill="rgba(0, 255, 255, 0.29)"></path><path d="M602 714L658 658" stroke-width="4.67" stroke="rgba(0, 255, 255, 0.29)"></path><path d="M595 714 a7 7 0 1 0 14 0 a7 7 0 1 0 -14 0zM651 658 a7 7 0 1 0 14 0 a7 7 0 1 0 -14 0z" fill="rgba(0, 255, 255, 0.29)"></path><path d="M406 490L322 490L266 546" stroke-width="4.67" stroke="rgba(0, 255, 255, 0.29)"></path><path d="M399 490 a7 7 0 1 0 14 0 a7 7 0 1 0 -14 0zM259 546 a7 7 0 1 0 14 0 a7 7 0 1 0 -14 0z" fill="rgba(0, 255, 255, 0.29)"></path><path d="M798 182L714 266L686 266" stroke-width="4.67" stroke="rgba(0, 255, 255, 0.29)"></path><path d="M791 182 a7 7 0 1 0 14 0 a7 7 0 1 0 -14 0zM679 266 a7 7 0 1 0 14 0 a7 7 0 1 0 -14 0z" fill="rgba(0, 255, 255, 0.29)"></path><path d="M658 490L714 546L770 546L798 574L798 658" stroke-width="4.67" stroke="rgba(0, 255, 255, 0.29)"></path><path d="M651 490 a7 7 0 1 0 14 0 a7 7 0 1 0 -14 0zM791 658 a7 7 0 1 0 14 0 a7 7 0 1 0 -14 0z" fill="rgba(0, 255, 255, 0.29)"></path><path d="M1386 378L1386 406L1330 462L1302 462L1274 434L1274 406L1414 266L1414 182" stroke-width="4.67" stroke="rgba(0, 255, 255, 0.29)"></path><path d="M1379 378 a7 7 0 1 0 14 0 a7 7 0 1 0 -14 0zM1407 182 a7 7 0 1 0 14 0 a7 7 0 1 0 -14 0z" fill="rgba(0, 255, 255, 0.29)"></path><path d="M966 70L1050 70" stroke-width="4.67" stroke="rgba(0, 255, 255, 0.29)"></path><path d="M959 70 a7 7 0 1 0 14 0 a7 7 0 1 0 -14 0zM1043 70 a7 7 0 1 0 14 0 a7 7 0 1 0 -14 0z" fill="rgba(0, 255, 255, 0.29)"></path><path d="M1050 182L1078 154L1078 98" stroke-width="4.67" stroke="rgba(0, 255, 255, 0.29)"></path><path d="M1043 182 a7 7 0 1 0 14 0 a7 7 0 1 0 -14 0zM1071 98 a7 7 0 1 0 14 0 a7 7 0 1 0 -14 0z" fill="rgba(0, 255, 255, 0.29)"></path><path d="M1246 518L1050 518" stroke-width="4.67" stroke="rgba(0, 255, 255, 0.29)"></path><path d="M1239 518 a7 7 0 1 0 14 0 a7 7 0 1 0 -14 0zM1043 518 a7 7 0 1 0 14 0 a7 7 0 1 0 -14 0z" fill="rgba(0, 255, 255, 0.29)"></path><path d="M910 322L854 266" stroke-width="4.67" stroke="rgba(0, 255, 255, 0.29)"></path><path d="M903 322 a7 7 0 1 0 14 0 a7 7 0 1 0 -14 0zM847 266 a7 7 0 1 0 14 0 a7 7 0 1 0 -14 0z" fill="rgba(0, 255, 255, 0.29)"></path><path d="M910 658L854 602" stroke-width="4.67" stroke="rgba(0, 255, 255, 0.29)"></path><path d="M903 658 a7 7 0 1 0 14 0 a7 7 0 1 0 -14 0zM847 602 a7 7 0 1 0 14 0 a7 7 0 1 0 -14 0z" fill="rgba(0, 255, 255, 0.29)"></path><path d="M1078 462L1022 406" stroke-width="4.67" stroke="rgba(0, 255, 255, 0.29)"></path><path d="M1071 462 a7 7 0 1 0 14 0 a7 7 0 1 0 -14 0zM1015 406 a7 7 0 1 0 14 0 a7 7 0 1 0 -14 0z" fill="rgba(0, 255, 255, 0.29)"></path><path d="M210 574L182 574L154 546" stroke-width="4.67" stroke="rgba(0, 255, 255, 0.29)"></path><path d="M203 574 a7 7 0 1 0 14 0 a7 7 0 1 0 -14 0zM147 546 a7 7 0 1 0 14 0 a7 7 0 1 0 -14 0z" fill="rgba(0, 255, 255, 0.29)"></path><path d="M1246 154L1246 42" stroke-width="4.67" stroke="rgba(0, 255, 255, 0.29)"></path><path d="M1239 154 a7 7 0 1 0 14 0 a7 7 0 1 0 -14 0zM1239 42 a7 7 0 1 0 14 0 a7 7 0 1 0 -14 0z" fill="rgba(0, 255, 255, 0.29)"></path><path d="M1050 238L994 182" stroke-width="4.67" stroke="rgba(0, 255, 255, 0.29)"></path><path d="M1043 238 a7 7 0 1 0 14 0 a7 7 0 1 0 -14 0zM987 182 a7 7 0 1 0 14 0 a7 7 0 1 0 -14 0z" fill="rgba(0, 255, 255, 0.29)"></path><path d="M238 154L294 154L322 126L322 98" stroke-width="4.67" stroke="rgba(0, 255, 255, 0.29)"></path><path d="M231 154 a7 7 0 1 0 14 0 a7 7 0 1 0 -14 0zM315 98 a7 7 0 1 0 14 0 a7 7 0 1 0 -14 0z" fill="rgba(0, 255, 255, 0.29)"></path><path d="M602 98L546 154" stroke-width="4.67" stroke="rgba(0, 255, 255, 0.29)"></path><path d="M595 98 a7 7 0 1 0 14 0 a7 7 0 1 0 -14 0zM539 154 a7 7 0 1 0 14 0 a7 7 0 1 0 -14 0z" fill="rgba(0, 255, 255, 0.29)"></path><path d="M434 266L378 266" stroke-width="4.67" stroke="rgba(0, 255, 255, 0.29)"></path><path d="M427 266 a7 7 0 1 0 14 0 a7 7 0 1 0 -14 0zM371 266 a7 7 0 1 0 14 0 a7 7 0 1 0 -14 0z" fill="rgba(0, 255, 255, 0.29)"></path><path d="M42 14L42 182" stroke-width="4.67" stroke="rgba(0, 255, 255, 0.29)"></path><path d="M35 14 a7 7 0 1 0 14 0 a7 7 0 1 0 -14 0zM35 182 a7 7 0 1 0 14 0 a7 7 0 1 0 -14 0z" fill="rgba(0, 255, 255, 0.29)"></path><path d="M966 322L966 238" stroke-width="4.67" stroke="rgba(0, 255, 255, 0.29)"></path><path d="M959 322 a7 7 0 1 0 14 0 a7 7 0 1 0 -14 0zM959 238 a7 7 0 1 0 14 0 a7 7 0 1 0 -14 0z" fill="rgba(0, 255, 255, 0.29)"></path><path d="M966 518L966 490L938 462" stroke-width="4.67" stroke="rgba(0, 255, 255, 0.29)"></path><path d="M959 518 a7 7 0 1 0 14 0 a7 7 0 1 0 -14 0zM931 462 a7 7 0 1 0 14 0 a7 7 0 1 0 -14 0z" fill="rgba(0, 255, 255, 0.29)"></path><path d="M182 70L182 210" stroke-width="4.67" stroke="rgba(0, 255, 255, 0.29)"></path><path d="M175 70 a7 7 0 1 0 14 0 a7 7 0 1 0 -14 0zM175 210 a7 7 0 1 0 14 0 a7 7 0 1 0 -14 0z" fill="rgba(0, 255, 255, 0.29)"></path><path d="M462 630L462 574L434 546" stroke-width="4.67" stroke="rgba(0, 255, 255, 0.29)"></path><path d="M455 630 a7 7 0 1 0 14 0 a7 7 0 1 0 -14 0zM427 546 a7 7 0 1 0 14 0 a7 7 0 1 0 -14 0z" fill="rgba(0, 255, 255, 0.29)"></path><path d="M1330 378L1330 434" stroke-width="4.67" stroke="rgba(0, 255, 255, 0.29)"></path><path d="M1323 378 a7 7 0 1 0 14 0 a7 7 0 1 0 -14 0zM1323 434 a7 7 0 1 0 14 0 a7 7 0 1 0 -14 0z" fill="rgba(0, 255, 255, 0.29)"></path><path d="M910 98L966 98" stroke-width="4.67" stroke="rgba(0, 255, 255, 0.29)"></path><path d="M903 98 a7 7 0 1 0 14 0 a7 7 0 1 0 -14 0zM959 98 a7 7 0 1 0 14 0 a7 7 0 1 0 -14 0z" fill="rgba(0, 255, 255, 0.29)"></path><path d="M602 126L630 98L658 98" stroke-width="4.67" stroke="rgba(0, 255, 255, 0.29)"></path><path d="M595 126 a7 7 0 1 0 14 0 a7 7 0 1 0 -14 0zM651 98 a7 7 0 1 0 14 0 a7 7 0 1 0 -14 0z" fill="rgba(0, 255, 255, 0.29)"></path><path d="M882 546L938 490" stroke-width="4.67" stroke="rgba(0, 255, 255, 0.29)"></path><path d="M875 546 a7 7 0 1 0 14 0 a7 7 0 1 0 -14 0zM931 490 a7 7 0 1 0 14 0 a7 7 0 1 0 -14 0z" fill="rgba(0, 255, 255, 0.29)"></path><path d="M1274 546L1302 574L1302 602" stroke-width="4.67" stroke="rgba(0, 255, 255, 0.29)"></path><path d="M1267 546 a7 7 0 1 0 14 0 a7 7 0 1 0 -14 0zM1295 602 a7 7 0 1 0 14 0 a7 7 0 1 0 -14 0z" fill="rgba(0, 255, 255, 0.29)"></path><path d="M1302 322L1274 322L1218 378L1218 406" stroke-width="4.67" stroke="rgba(0, 255, 255, 0.29)"></path><path d="M1295 322 a7 7 0 1 0 14 0 a7 7 0 1 0 -14 0zM1211 406 a7 7 0 1 0 14 0 a7 7 0 1 0 -14 0z" fill="rgba(0, 255, 255, 0.29)"></path><path d="M658 686L686 686L714 714" stroke-width="4.67" stroke="rgba(0, 255, 255, 0.29)"></path><path d="M651 686 a7 7 0 1 0 14 0 a7 7 0 1 0 -14 0zM707 714 a7 7 0 1 0 14 0 a7 7 0 1 0 -14 0z" fill="rgba(0, 255, 255, 0.29)"></path><path d="M350 518L350 546L322 574" stroke-width="4.67" stroke="rgba(0, 255, 255, 0.29)"></path><path d="M343 518 a7 7 0 1 0 14 0 a7 7 0 1 0 -14 0zM315 574 a7 7 0 1 0 14 0 a7 7 0 1 0 -14 0z" fill="rgba(0, 255, 255, 0.29)"></path><path d="M686 490L658 462L630 462" stroke-width="4.67" stroke="rgba(0, 255, 255, 0.29)"></path><path d="M679 490 a7 7 0 1 0 14 0 a7 7 0 1 0 -14 0zM623 462 a7 7 0 1 0 14 0 a7 7 0 1 0 -14 0z" fill="rgba(0, 255, 255, 0.29)"></path><path d="M1442 574L1414 602L1358 602" stroke-width="4.67" stroke="rgba(0, 255, 255, 0.29)"></path><path d="M1435 574 a7 7 0 1 0 14 0 a7 7 0 1 0 -14 0zM1351 602 a7 7 0 1 0 14 0 a7 7 0 1 0 -14 0z" fill="rgba(0, 255, 255, 0.29)"></path><path d="M1330 154L1330 70" stroke-width="4.67" stroke="rgba(0, 255, 255, 0.29)"></path><path d="M1323 154 a7 7 0 1 0 14 0 a7 7 0 1 0 -14 0zM1323 70 a7 7 0 1 0 14 0 a7 7 0 1 0 -14 0z" fill="rgba(0, 255, 255, 0.29)"></path><path d="M938 518L938 546L910 574" stroke-width="4.67" stroke="rgba(0, 255, 255, 0.29)"></path><path d="M931 518 a7 7 0 1 0 14 0 a7 7 0 1 0 -14 0zM903 574 a7 7 0 1 0 14 0 a7 7 0 1 0 -14 0z" fill="rgba(0, 255, 255, 0.29)"></path></g></g><defs><mask id="SvgjsMask1932"><rect width="1440" height="720" fill="#ffffff"></rect></mask><linearGradient x1="0%" y1="50%" x2="100%" y2="50%" gradientUnits="userSpaceOnUse" id="SvgjsLinearGradient1933"><stop stop-color="rgba(14, 42, 71, 1)" offset="0.75"></stop><stop stop-color="rgba(0, 27, 103, 1)" offset="1"></stop></linearGradient><mask id="SvgjsMask1934"><rect width="1440" height="720" fill="white"></rect><path d="M626.5 154 a3.5 3.5 0 1 0 7 0 a3.5 3.5 0 1 0 -7 0zM738.5 14 a3.5 3.5 0 1 0 7 0 a3.5 3.5 0 1 0 -7 0z" fill="black"></path><path d="M682.5 238 a3.5 3.5 0 1 0 7 0 a3.5 3.5 0 1 0 -7 0zM1214.5 154 a3.5 3.5 0 1 0 7 0 a3.5 3.5 0 1 0 -7 0z" fill="black"></path><path d="M1018.5 546 a3.5 3.5 0 1 0 7 0 a3.5 3.5 0 1 0 -7 0zM514.5 434 a3.5 3.5 0 1 0 7 0 a3.5 3.5 0 1 0 -7 0z" fill="black"></path><path d="M1410.5 574 a3.5 3.5 0 1 0 7 0 a3.5 3.5 0 1 0 -7 0zM878.5 126 a3.5 3.5 0 1 0 7 0 a3.5 3.5 0 1 0 -7 0z" fill="black"></path><path d="M430.5 154 a3.5 3.5 0 1 0 7 0 a3.5 3.5 0 1 0 -7 0zM962.5 350 a3.5 3.5 0 1 0 7 0 a3.5 3.5 0 1 0 -7 0z" fill="black"></path><path d="M66.5 714 a3.5 3.5 0 1 0 7 0 a3.5 3.5 0 1 0 -7 0zM10.5 714 a3.5 3.5 0 1 0 7 0 a3.5 3.5 0 1 0 -7 0z" fill="black"></path><path d="M122.5 602 a3.5 3.5 0 1 0 7 0 a3.5 3.5 0 1 0 -7 0zM10.5 546 a3.5 3.5 0 1 0 7 0 a3.5 3.5 0 1 0 -7 0z" fill="black"></path><path d="M906.5 238 a3.5 3.5 0 1 0 7 0 a3.5 3.5 0 1 0 -7 0zM934.5 322 a3.5 3.5 0 1 0 7 0 a3.5 3.5 0 1 0 -7 0z" fill="black"></path><path d="M710.5 42 a3.5 3.5 0 1 0 7 0 a3.5 3.5 0 1 0 -7 0zM178.5 42 a3.5 3.5 0 1 0 7 0 a3.5 3.5 0 1 0 -7 0z" fill="black"></path><path d="M1242.5 546 a3.5 3.5 0 1 0 7 0 a3.5 3.5 0 1 0 -7 0zM710.5 434 a3.5 3.5 0 1 0 7 0 a3.5 3.5 0 1 0 -7 0z" fill="black"></path><path d="M1186.5 294 a3.5 3.5 0 1 0 7 0 a3.5 3.5 0 1 0 -7 0zM1130.5 350 a3.5 3.5 0 1 0 7 0 a3.5 3.5 0 1 0 -7 0z" fill="black"></path><path d="M850.5 294 a3.5 3.5 0 1 0 7 0 a3.5 3.5 0 1 0 -7 0zM598.5 42 a3.5 3.5 0 1 0 7 0 a3.5 3.5 0 1 0 -7 0z" fill="black"></path><path d="M1438.5 686 a3.5 3.5 0 1 0 7 0 a3.5 3.5 0 1 0 -7 0zM990.5 714 a3.5 3.5 0 1 0 7 0 a3.5 3.5 0 1 0 -7 0z" fill="black"></path><path d="M1074.5 574 a3.5 3.5 0 1 0 7 0 a3.5 3.5 0 1 0 -7 0zM1018.5 602 a3.5 3.5 0 1 0 7 0 a3.5 3.5 0 1 0 -7 0z" fill="black"></path><path d="M1326.5 238 a3.5 3.5 0 1 0 7 0 a3.5 3.5 0 1 0 -7 0zM1438.5 14 a3.5 3.5 0 1 0 7 0 a3.5 3.5 0 1 0 -7 0z" fill="black"></path><path d="M1354.5 70 a3.5 3.5 0 1 0 7 0 a3.5 3.5 0 1 0 -7 0zM1410.5 126 a3.5 3.5 0 1 0 7 0 a3.5 3.5 0 1 0 -7 0z" fill="black"></path><path d="M290.5 378 a3.5 3.5 0 1 0 7 0 a3.5 3.5 0 1 0 -7 0zM150.5 14 a3.5 3.5 0 1 0 7 0 a3.5 3.5 0 1 0 -7 0z" fill="black"></path><path d="M1410.5 518 a3.5 3.5 0 1 0 7 0 a3.5 3.5 0 1 0 -7 0zM1382.5 154 a3.5 3.5 0 1 0 7 0 a3.5 3.5 0 1 0 -7 0z" fill="black"></path><path d="M1214.5 490 a3.5 3.5 0 1 0 7 0 a3.5 3.5 0 1 0 -7 0zM934.5 378 a3.5 3.5 0 1 0 7 0 a3.5 3.5 0 1 0 -7 0z" fill="black"></path><path d="M206.5 238 a3.5 3.5 0 1 0 7 0 a3.5 3.5 0 1 0 -7 0zM206.5 42 a3.5 3.5 0 1 0 7 0 a3.5 3.5 0 1 0 -7 0z" fill="black"></path><path d="M822.5 714 a3.5 3.5 0 1 0 7 0 a3.5 3.5 0 1 0 -7 0zM290.5 294 a3.5 3.5 0 1 0 7 0 a3.5 3.5 0 1 0 -7 0z" fill="black"></path><path d="M1382.5 14 a3.5 3.5 0 1 0 7 0 a3.5 3.5 0 1 0 -7 0zM1382.5 98 a3.5 3.5 0 1 0 7 0 a3.5 3.5 0 1 0 -7 0z" fill="black"></path><path d="M514.5 266 a3.5 3.5 0 1 0 7 0 a3.5 3.5 0 1 0 -7 0zM234.5 266 a3.5 3.5 0 1 0 7 0 a3.5 3.5 0 1 0 -7 0z" fill="black"></path><path d="M1158.5 238 a3.5 3.5 0 1 0 7 0 a3.5 3.5 0 1 0 -7 0zM1046.5 42 a3.5 3.5 0 1 0 7 0 a3.5 3.5 0 1 0 -7 0z" fill="black"></path><path d="M766.5 630 a3.5 3.5 0 1 0 7 0 a3.5 3.5 0 1 0 -7 0zM570.5 434 a3.5 3.5 0 1 0 7 0 a3.5 3.5 0 1 0 -7 0z" fill="black"></path><path d="M346.5 574 a3.5 3.5 0 1 0 7 0 a3.5 3.5 0 1 0 -7 0zM626.5 546 a3.5 3.5 0 1 0 7 0 a3.5 3.5 0 1 0 -7 0z" fill="black"></path><path d="M122.5 294 a3.5 3.5 0 1 0 7 0 a3.5 3.5 0 1 0 -7 0zM122.5 14 a3.5 3.5 0 1 0 7 0 a3.5 3.5 0 1 0 -7 0z" fill="black"></path><path d="M514.5 714 a3.5 3.5 0 1 0 7 0 a3.5 3.5 0 1 0 -7 0zM794.5 714 a3.5 3.5 0 1 0 7 0 a3.5 3.5 0 1 0 -7 0z" fill="black"></path><path d="M402.5 714 a3.5 3.5 0 1 0 7 0 a3.5 3.5 0 1 0 -7 0zM542.5 602 a3.5 3.5 0 1 0 7 0 a3.5 3.5 0 1 0 -7 0z" fill="black"></path><path d="M1382.5 266 a3.5 3.5 0 1 0 7 0 a3.5 3.5 0 1 0 -7 0zM1438.5 210 a3.5 3.5 0 1 0 7 0 a3.5 3.5 0 1 0 -7 0z" fill="black"></path><path d="M1242.5 322 a3.5 3.5 0 1 0 7 0 a3.5 3.5 0 1 0 -7 0zM1186.5 350 a3.5 3.5 0 1 0 7 0 a3.5 3.5 0 1 0 -7 0z" fill="black"></path><path d="M1102.5 98 a3.5 3.5 0 1 0 7 0 a3.5 3.5 0 1 0 -7 0zM1074.5 266 a3.5 3.5 0 1 0 7 0 a3.5 3.5 0 1 0 -7 0z" fill="black"></path><path d="M1102.5 686 a3.5 3.5 0 1 0 7 0 a3.5 3.5 0 1 0 -7 0zM1438.5 714 a3.5 3.5 0 1 0 7 0 a3.5 3.5 0 1 0 -7 0z" fill="black"></path><path d="M206.5 406 a3.5 3.5 0 1 0 7 0 a3.5 3.5 0 1 0 -7 0zM262.5 350 a3.5 3.5 0 1 0 7 0 a3.5 3.5 0 1 0 -7 0z" fill="black"></path><path d="M850.5 322 a3.5 3.5 0 1 0 7 0 a3.5 3.5 0 1 0 -7 0zM654.5 322 a3.5 3.5 0 1 0 7 0 a3.5 3.5 0 1 0 -7 0z" fill="black"></path><path d="M206.5 630 a3.5 3.5 0 1 0 7 0 a3.5 3.5 0 1 0 -7 0zM10.5 98 a3.5 3.5 0 1 0 7 0 a3.5 3.5 0 1 0 -7 0z" fill="black"></path><path d="M206.5 658 a3.5 3.5 0 1 0 7 0 a3.5 3.5 0 1 0 -7 0zM94.5 602 a3.5 3.5 0 1 0 7 0 a3.5 3.5 0 1 0 -7 0z" fill="black"></path><path d="M486.5 266 a3.5 3.5 0 1 0 7 0 a3.5 3.5 0 1 0 -7 0zM262.5 294 a3.5 3.5 0 1 0 7 0 a3.5 3.5 0 1 0 -7 0z" fill="black"></path><path d="M1326.5 658 a3.5 3.5 0 1 0 7 0 a3.5 3.5 0 1 0 -7 0zM1438.5 658 a3.5 3.5 0 1 0 7 0 a3.5 3.5 0 1 0 -7 0z" fill="black"></path><path d="M850.5 238 a3.5 3.5 0 1 0 7 0 a3.5 3.5 0 1 0 -7 0zM878.5 154 a3.5 3.5 0 1 0 7 0 a3.5 3.5 0 1 0 -7 0z" fill="black"></path><path d="M570.5 210 a3.5 3.5 0 1 0 7 0 a3.5 3.5 0 1 0 -7 0zM878.5 14 a3.5 3.5 0 1 0 7 0 a3.5 3.5 0 1 0 -7 0z" fill="black"></path><path d="M66.5 42 a3.5 3.5 0 1 0 7 0 a3.5 3.5 0 1 0 -7 0zM178.5 518 a3.5 3.5 0 1 0 7 0 a3.5 3.5 0 1 0 -7 0z" fill="black"></path><path d="M822.5 602 a3.5 3.5 0 1 0 7 0 a3.5 3.5 0 1 0 -7 0zM962.5 714 a3.5 3.5 0 1 0 7 0 a3.5 3.5 0 1 0 -7 0z" fill="black"></path><path d="M906.5 462 a3.5 3.5 0 1 0 7 0 a3.5 3.5 0 1 0 -7 0zM794.5 462 a3.5 3.5 0 1 0 7 0 a3.5 3.5 0 1 0 -7 0z" fill="black"></path><path d="M710.5 98 a3.5 3.5 0 1 0 7 0 a3.5 3.5 0 1 0 -7 0zM682.5 70 a3.5 3.5 0 1 0 7 0 a3.5 3.5 0 1 0 -7 0z" fill="black"></path><path d="M374.5 350 a3.5 3.5 0 1 0 7 0 a3.5 3.5 0 1 0 -7 0zM318.5 238 a3.5 3.5 0 1 0 7 0 a3.5 3.5 0 1 0 -7 0z" fill="black"></path><path d="M542.5 266 a3.5 3.5 0 1 0 7 0 a3.5 3.5 0 1 0 -7 0zM906.5 378 a3.5 3.5 0 1 0 7 0 a3.5 3.5 0 1 0 -7 0z" fill="black"></path><path d="M822.5 210 a3.5 3.5 0 1 0 7 0 a3.5 3.5 0 1 0 -7 0zM822.5 266 a3.5 3.5 0 1 0 7 0 a3.5 3.5 0 1 0 -7 0z" fill="black"></path><path d="M1298.5 14 a3.5 3.5 0 1 0 7 0 a3.5 3.5 0 1 0 -7 0zM1186.5 266 a3.5 3.5 0 1 0 7 0 a3.5 3.5 0 1 0 -7 0z" fill="black"></path><path d="M626.5 602 a3.5 3.5 0 1 0 7 0 a3.5 3.5 0 1 0 -7 0zM542.5 714 a3.5 3.5 0 1 0 7 0 a3.5 3.5 0 1 0 -7 0z" fill="black"></path><path d="M290.5 686 a3.5 3.5 0 1 0 7 0 a3.5 3.5 0 1 0 -7 0zM374.5 714 a3.5 3.5 0 1 0 7 0 a3.5 3.5 0 1 0 -7 0z" fill="black"></path><path d="M262.5 686 a3.5 3.5 0 1 0 7 0 a3.5 3.5 0 1 0 -7 0zM262.5 378 a3.5 3.5 0 1 0 7 0 a3.5 3.5 0 1 0 -7 0z" fill="black"></path><path d="M262.5 518 a3.5 3.5 0 1 0 7 0 a3.5 3.5 0 1 0 -7 0zM374.5 546 a3.5 3.5 0 1 0 7 0 a3.5 3.5 0 1 0 -7 0z" fill="black"></path><path d="M346.5 98 a3.5 3.5 0 1 0 7 0 a3.5 3.5 0 1 0 -7 0zM234.5 182 a3.5 3.5 0 1 0 7 0 a3.5 3.5 0 1 0 -7 0z" fill="black"></path><path d="M514.5 350 a3.5 3.5 0 1 0 7 0 a3.5 3.5 0 1 0 -7 0zM626.5 378 a3.5 3.5 0 1 0 7 0 a3.5 3.5 0 1 0 -7 0z" fill="black"></path><path d="M1382.5 630 a3.5 3.5 0 1 0 7 0 a3.5 3.5 0 1 0 -7 0zM1074.5 602 a3.5 3.5 0 1 0 7 0 a3.5 3.5 0 1 0 -7 0z" fill="black"></path><path d="M402.5 42 a3.5 3.5 0 1 0 7 0 a3.5 3.5 0 1 0 -7 0zM458.5 126 a3.5 3.5 0 1 0 7 0 a3.5 3.5 0 1 0 -7 0z" fill="black"></path><path d="M94.5 14 a3.5 3.5 0 1 0 7 0 a3.5 3.5 0 1 0 -7 0zM178.5 490 a3.5 3.5 0 1 0 7 0 a3.5 3.5 0 1 0 -7 0z" fill="black"></path><path d="M38.5 630 a3.5 3.5 0 1 0 7 0 a3.5 3.5 0 1 0 -7 0zM10.5 574 a3.5 3.5 0 1 0 7 0 a3.5 3.5 0 1 0 -7 0z" fill="black"></path><path d="M430.5 98 a3.5 3.5 0 1 0 7 0 a3.5 3.5 0 1 0 -7 0zM402.5 154 a3.5 3.5 0 1 0 7 0 a3.5 3.5 0 1 0 -7 0z" fill="black"></path><path d="M318.5 378 a3.5 3.5 0 1 0 7 0 a3.5 3.5 0 1 0 -7 0zM234.5 490 a3.5 3.5 0 1 0 7 0 a3.5 3.5 0 1 0 -7 0z" fill="black"></path><path d="M1270.5 714 a3.5 3.5 0 1 0 7 0 a3.5 3.5 0 1 0 -7 0zM1018.5 714 a3.5 3.5 0 1 0 7 0 a3.5 3.5 0 1 0 -7 0z" fill="black"></path><path d="M1102.5 434 a3.5 3.5 0 1 0 7 0 a3.5 3.5 0 1 0 -7 0zM962.5 406 a3.5 3.5 0 1 0 7 0 a3.5 3.5 0 1 0 -7 0z" fill="black"></path><path d="M94.5 686 a3.5 3.5 0 1 0 7 0 a3.5 3.5 0 1 0 -7 0zM94.5 630 a3.5 3.5 0 1 0 7 0 a3.5 3.5 0 1 0 -7 0z" fill="black"></path><path d="M794.5 546 a3.5 3.5 0 1 0 7 0 a3.5 3.5 0 1 0 -7 0zM598.5 434 a3.5 3.5 0 1 0 7 0 a3.5 3.5 0 1 0 -7 0z" fill="black"></path><path d="M94.5 378 a3.5 3.5 0 1 0 7 0 a3.5 3.5 0 1 0 -7 0zM150.5 490 a3.5 3.5 0 1 0 7 0 a3.5 3.5 0 1 0 -7 0z" fill="black"></path><path d="M1158.5 182 a3.5 3.5 0 1 0 7 0 a3.5 3.5 0 1 0 -7 0zM1186.5 238 a3.5 3.5 0 1 0 7 0 a3.5 3.5 0 1 0 -7 0z" fill="black"></path><path d="M1130.5 42 a3.5 3.5 0 1 0 7 0 a3.5 3.5 0 1 0 -7 0zM1214.5 238 a3.5 3.5 0 1 0 7 0 a3.5 3.5 0 1 0 -7 0z" fill="black"></path><path d="M1242.5 658 a3.5 3.5 0 1 0 7 0 a3.5 3.5 0 1 0 -7 0zM1018.5 658 a3.5 3.5 0 1 0 7 0 a3.5 3.5 0 1 0 -7 0z" fill="black"></path><path d="M1354.5 546 a3.5 3.5 0 1 0 7 0 a3.5 3.5 0 1 0 -7 0zM1438.5 546 a3.5 3.5 0 1 0 7 0 a3.5 3.5 0 1 0 -7 0z" fill="black"></path><path d="M1130.5 406 a3.5 3.5 0 1 0 7 0 a3.5 3.5 0 1 0 -7 0zM1186.5 462 a3.5 3.5 0 1 0 7 0 a3.5 3.5 0 1 0 -7 0z" fill="black"></path><path d="M1130.5 238 a3.5 3.5 0 1 0 7 0 a3.5 3.5 0 1 0 -7 0zM1130.5 98 a3.5 3.5 0 1 0 7 0 a3.5 3.5 0 1 0 -7 0z" fill="black"></path><path d="M486.5 462 a3.5 3.5 0 1 0 7 0 a3.5 3.5 0 1 0 -7 0zM486.5 350 a3.5 3.5 0 1 0 7 0 a3.5 3.5 0 1 0 -7 0z" fill="black"></path><path d="M990.5 154 a3.5 3.5 0 1 0 7 0 a3.5 3.5 0 1 0 -7 0zM1102.5 70 a3.5 3.5 0 1 0 7 0 a3.5 3.5 0 1 0 -7 0z" fill="black"></path><path d="M402.5 350 a3.5 3.5 0 1 0 7 0 a3.5 3.5 0 1 0 -7 0zM458.5 350 a3.5 3.5 0 1 0 7 0 a3.5 3.5 0 1 0 -7 0z" fill="black"></path><path d="M738.5 126 a3.5 3.5 0 1 0 7 0 a3.5 3.5 0 1 0 -7 0zM766.5 14 a3.5 3.5 0 1 0 7 0 a3.5 3.5 0 1 0 -7 0z" fill="black"></path><path d="M1018.5 294 a3.5 3.5 0 1 0 7 0 a3.5 3.5 0 1 0 -7 0zM962.5 378 a3.5 3.5 0 1 0 7 0 a3.5 3.5 0 1 0 -7 0z" fill="black"></path><path d="M150.5 350 a3.5 3.5 0 1 0 7 0 a3.5 3.5 0 1 0 -7 0zM150.5 238 a3.5 3.5 0 1 0 7 0 a3.5 3.5 0 1 0 -7 0z" fill="black"></path><path d="M346.5 70 a3.5 3.5 0 1 0 7 0 a3.5 3.5 0 1 0 -7 0zM402.5 98 a3.5 3.5 0 1 0 7 0 a3.5 3.5 0 1 0 -7 0z" fill="black"></path><path d="M1438.5 518 a3.5 3.5 0 1 0 7 0 a3.5 3.5 0 1 0 -7 0zM1382.5 462 a3.5 3.5 0 1 0 7 0 a3.5 3.5 0 1 0 -7 0z" fill="black"></path><path d="M458.5 378 a3.5 3.5 0 1 0 7 0 a3.5 3.5 0 1 0 -7 0zM402.5 378 a3.5 3.5 0 1 0 7 0 a3.5 3.5 0 1 0 -7 0z" fill="black"></path><path d="M738.5 714 a3.5 3.5 0 1 0 7 0 a3.5 3.5 0 1 0 -7 0zM570.5 714 a3.5 3.5 0 1 0 7 0 a3.5 3.5 0 1 0 -7 0z" fill="black"></path><path d="M402.5 518 a3.5 3.5 0 1 0 7 0 a3.5 3.5 0 1 0 -7 0zM402.5 546 a3.5 3.5 0 1 0 7 0 a3.5 3.5 0 1 0 -7 0z" fill="black"></path><path d="M178.5 630 a3.5 3.5 0 1 0 7 0 a3.5 3.5 0 1 0 -7 0zM122.5 686 a3.5 3.5 0 1 0 7 0 a3.5 3.5 0 1 0 -7 0z" fill="black"></path><path d="M262.5 714 a3.5 3.5 0 1 0 7 0 a3.5 3.5 0 1 0 -7 0zM178.5 714 a3.5 3.5 0 1 0 7 0 a3.5 3.5 0 1 0 -7 0z" fill="black"></path><path d="M10.5 630 a3.5 3.5 0 1 0 7 0 a3.5 3.5 0 1 0 -7 0zM10.5 686 a3.5 3.5 0 1 0 7 0 a3.5 3.5 0 1 0 -7 0z" fill="black"></path><path d="M598.5 714 a3.5 3.5 0 1 0 7 0 a3.5 3.5 0 1 0 -7 0zM654.5 658 a3.5 3.5 0 1 0 7 0 a3.5 3.5 0 1 0 -7 0z" fill="black"></path><path d="M402.5 490 a3.5 3.5 0 1 0 7 0 a3.5 3.5 0 1 0 -7 0zM262.5 546 a3.5 3.5 0 1 0 7 0 a3.5 3.5 0 1 0 -7 0z" fill="black"></path><path d="M794.5 182 a3.5 3.5 0 1 0 7 0 a3.5 3.5 0 1 0 -7 0zM682.5 266 a3.5 3.5 0 1 0 7 0 a3.5 3.5 0 1 0 -7 0z" fill="black"></path><path d="M654.5 490 a3.5 3.5 0 1 0 7 0 a3.5 3.5 0 1 0 -7 0zM794.5 658 a3.5 3.5 0 1 0 7 0 a3.5 3.5 0 1 0 -7 0z" fill="black"></path><path d="M1382.5 378 a3.5 3.5 0 1 0 7 0 a3.5 3.5 0 1 0 -7 0zM1410.5 182 a3.5 3.5 0 1 0 7 0 a3.5 3.5 0 1 0 -7 0z" fill="black"></path><path d="M962.5 70 a3.5 3.5 0 1 0 7 0 a3.5 3.5 0 1 0 -7 0zM1046.5 70 a3.5 3.5 0 1 0 7 0 a3.5 3.5 0 1 0 -7 0z" fill="black"></path><path d="M1046.5 182 a3.5 3.5 0 1 0 7 0 a3.5 3.5 0 1 0 -7 0zM1074.5 98 a3.5 3.5 0 1 0 7 0 a3.5 3.5 0 1 0 -7 0z" fill="black"></path><path d="M1242.5 518 a3.5 3.5 0 1 0 7 0 a3.5 3.5 0 1 0 -7 0zM1046.5 518 a3.5 3.5 0 1 0 7 0 a3.5 3.5 0 1 0 -7 0z" fill="black"></path><path d="M906.5 322 a3.5 3.5 0 1 0 7 0 a3.5 3.5 0 1 0 -7 0zM850.5 266 a3.5 3.5 0 1 0 7 0 a3.5 3.5 0 1 0 -7 0z" fill="black"></path><path d="M906.5 658 a3.5 3.5 0 1 0 7 0 a3.5 3.5 0 1 0 -7 0zM850.5 602 a3.5 3.5 0 1 0 7 0 a3.5 3.5 0 1 0 -7 0z" fill="black"></path><path d="M1074.5 462 a3.5 3.5 0 1 0 7 0 a3.5 3.5 0 1 0 -7 0zM1018.5 406 a3.5 3.5 0 1 0 7 0 a3.5 3.5 0 1 0 -7 0z" fill="black"></path><path d="M206.5 574 a3.5 3.5 0 1 0 7 0 a3.5 3.5 0 1 0 -7 0zM150.5 546 a3.5 3.5 0 1 0 7 0 a3.5 3.5 0 1 0 -7 0z" fill="black"></path><path d="M1242.5 154 a3.5 3.5 0 1 0 7 0 a3.5 3.5 0 1 0 -7 0zM1242.5 42 a3.5 3.5 0 1 0 7 0 a3.5 3.5 0 1 0 -7 0z" fill="black"></path><path d="M1046.5 238 a3.5 3.5 0 1 0 7 0 a3.5 3.5 0 1 0 -7 0zM990.5 182 a3.5 3.5 0 1 0 7 0 a3.5 3.5 0 1 0 -7 0z" fill="black"></path><path d="M234.5 154 a3.5 3.5 0 1 0 7 0 a3.5 3.5 0 1 0 -7 0zM318.5 98 a3.5 3.5 0 1 0 7 0 a3.5 3.5 0 1 0 -7 0z" fill="black"></path><path d="M598.5 98 a3.5 3.5 0 1 0 7 0 a3.5 3.5 0 1 0 -7 0zM542.5 154 a3.5 3.5 0 1 0 7 0 a3.5 3.5 0 1 0 -7 0z" fill="black"></path><path d="M430.5 266 a3.5 3.5 0 1 0 7 0 a3.5 3.5 0 1 0 -7 0zM374.5 266 a3.5 3.5 0 1 0 7 0 a3.5 3.5 0 1 0 -7 0z" fill="black"></path><path d="M38.5 14 a3.5 3.5 0 1 0 7 0 a3.5 3.5 0 1 0 -7 0zM38.5 182 a3.5 3.5 0 1 0 7 0 a3.5 3.5 0 1 0 -7 0z" fill="black"></path><path d="M962.5 322 a3.5 3.5 0 1 0 7 0 a3.5 3.5 0 1 0 -7 0zM962.5 238 a3.5 3.5 0 1 0 7 0 a3.5 3.5 0 1 0 -7 0z" fill="black"></path><path d="M962.5 518 a3.5 3.5 0 1 0 7 0 a3.5 3.5 0 1 0 -7 0zM934.5 462 a3.5 3.5 0 1 0 7 0 a3.5 3.5 0 1 0 -7 0z" fill="black"></path><path d="M178.5 70 a3.5 3.5 0 1 0 7 0 a3.5 3.5 0 1 0 -7 0zM178.5 210 a3.5 3.5 0 1 0 7 0 a3.5 3.5 0 1 0 -7 0z" fill="black"></path><path d="M458.5 630 a3.5 3.5 0 1 0 7 0 a3.5 3.5 0 1 0 -7 0zM430.5 546 a3.5 3.5 0 1 0 7 0 a3.5 3.5 0 1 0 -7 0z" fill="black"></path><path d="M1326.5 378 a3.5 3.5 0 1 0 7 0 a3.5 3.5 0 1 0 -7 0zM1326.5 434 a3.5 3.5 0 1 0 7 0 a3.5 3.5 0 1 0 -7 0z" fill="black"></path><path d="M906.5 98 a3.5 3.5 0 1 0 7 0 a3.5 3.5 0 1 0 -7 0zM962.5 98 a3.5 3.5 0 1 0 7 0 a3.5 3.5 0 1 0 -7 0z" fill="black"></path><path d="M598.5 126 a3.5 3.5 0 1 0 7 0 a3.5 3.5 0 1 0 -7 0zM654.5 98 a3.5 3.5 0 1 0 7 0 a3.5 3.5 0 1 0 -7 0z" fill="black"></path><path d="M878.5 546 a3.5 3.5 0 1 0 7 0 a3.5 3.5 0 1 0 -7 0zM934.5 490 a3.5 3.5 0 1 0 7 0 a3.5 3.5 0 1 0 -7 0z" fill="black"></path><path d="M1270.5 546 a3.5 3.5 0 1 0 7 0 a3.5 3.5 0 1 0 -7 0zM1298.5 602 a3.5 3.5 0 1 0 7 0 a3.5 3.5 0 1 0 -7 0z" fill="black"></path><path d="M1298.5 322 a3.5 3.5 0 1 0 7 0 a3.5 3.5 0 1 0 -7 0zM1214.5 406 a3.5 3.5 0 1 0 7 0 a3.5 3.5 0 1 0 -7 0z" fill="black"></path><path d="M654.5 686 a3.5 3.5 0 1 0 7 0 a3.5 3.5 0 1 0 -7 0zM710.5 714 a3.5 3.5 0 1 0 7 0 a3.5 3.5 0 1 0 -7 0z" fill="black"></path><path d="M346.5 518 a3.5 3.5 0 1 0 7 0 a3.5 3.5 0 1 0 -7 0zM318.5 574 a3.5 3.5 0 1 0 7 0 a3.5 3.5 0 1 0 -7 0z" fill="black"></path><path d="M682.5 490 a3.5 3.5 0 1 0 7 0 a3.5 3.5 0 1 0 -7 0zM626.5 462 a3.5 3.5 0 1 0 7 0 a3.5 3.5 0 1 0 -7 0z" fill="black"></path><path d="M1438.5 574 a3.5 3.5 0 1 0 7 0 a3.5 3.5 0 1 0 -7 0zM1354.5 602 a3.5 3.5 0 1 0 7 0 a3.5 3.5 0 1 0 -7 0z" fill="black"></path><path d="M1326.5 154 a3.5 3.5 0 1 0 7 0 a3.5 3.5 0 1 0 -7 0zM1326.5 70 a3.5 3.5 0 1 0 7 0 a3.5 3.5 0 1 0 -7 0z" fill="black"></path><path d="M934.5 518 a3.5 3.5 0 1 0 7 0 a3.5 3.5 0 1 0 -7 0zM906.5 574 a3.5 3.5 0 1 0 7 0 a3.5 3.5 0 1 0 -7 0z" fill="black"></path></mask></defs></svg>